solid CERO_Wheel
  facet normal -0.991445 0.000000 -0.130526
    outer loop
      vertex 228.600000 -101.600000 0.000000
      vertex 220.810644 -101.600000 59.166034
      vertex 220.810644 101.600000 59.166034
    endloop
  endfacet
  facet normal -0.991445 0.000000 -0.130526
    outer loop
      vertex 228.600000 -101.600000 0.000000
      vertex 220.810644 101.600000 59.166034
      vertex 228.600000 101.600000 0.000000
    endloop
  endfacet
  facet normal 0.000000 1.000000 0.000000
    outer loop
      vertex 0.000000 -101.600000 0.000000
      vertex 220.810644 -101.600000 59.166034
      vertex 228.600000 -101.600000 0.000000
    endloop
  endfacet
  facet normal 0.000000 -1.000000 0.000000
    outer loop
      vertex 0.000000 101.600000 0.000000
      vertex 228.600000 101.600000 0.000000
      vertex 220.810644 101.600000 59.166034
    endloop
  endfacet
  facet normal -0.923880 0.000000 -0.382683
    outer loop
      vertex 220.810644 -101.600000 59.166034
      vertex 197.973407 -101.600000 114.300000
      vertex 197.973407 101.600000 114.300000
    endloop
  endfacet
  facet normal -0.923880 0.000000 -0.382683
    outer loop
      vertex 220.810644 -101.600000 59.166034
      vertex 197.973407 101.600000 114.300000
      vertex 220.810644 101.600000 59.166034
    endloop
  endfacet
  facet normal 0.000000 1.000000 0.000000
    outer loop
      vertex 0.000000 -101.600000 0.000000
      vertex 197.973407 -101.600000 114.300000
      vertex 220.810644 -101.600000 59.166034
    endloop
  endfacet
  facet normal 0.000000 -1.000000 0.000000
    outer loop
      vertex 0.000000 101.600000 0.000000
      vertex 220.810644 101.600000 59.166034
      vertex 197.973407 101.600000 114.300000
    endloop
  endfacet
  facet normal -0.793353 0.000000 -0.608761
    outer loop
      vertex 197.973407 -101.600000 114.300000
      vertex 161.644610 -101.600000 161.644610
      vertex 161.644610 101.600000 161.644610
    endloop
  endfacet
  facet normal -0.793353 0.000000 -0.608761
    outer loop
      vertex 197.973407 -101.600000 114.300000
      vertex 161.644610 101.600000 161.644610
      vertex 197.973407 101.600000 114.300000
    endloop
  endfacet
  facet normal 0.000000 1.000000 0.000000
    outer loop
      vertex 0.000000 -101.600000 0.000000
      vertex 161.644610 -101.600000 161.644610
      vertex 197.973407 -101.600000 114.300000
    endloop
  endfacet
  facet normal 0.000000 -1.000000 0.000000
    outer loop
      vertex 0.000000 101.600000 0.000000
      vertex 197.973407 101.600000 114.300000
      vertex 161.644610 101.600000 161.644610
    endloop
  endfacet
  facet normal -0.608761 0.000000 -0.793353
    outer loop
      vertex 161.644610 -101.600000 161.644610
      vertex 114.300000 -101.600000 197.973407
      vertex 114.300000 101.600000 197.973407
    endloop
  endfacet
  facet normal -0.608761 0.000000 -0.793353
    outer loop
      vertex 161.644610 -101.600000 161.644610
      vertex 114.300000 101.600000 197.973407
      vertex 161.644610 101.600000 161.644610
    endloop
  endfacet
  facet normal 0.000000 1.000000 0.000000
    outer loop
      vertex 0.000000 -101.600000 0.000000
      vertex 114.300000 -101.600000 197.973407
      vertex 161.644610 -101.600000 161.644610
    endloop
  endfacet
  facet normal 0.000000 -1.000000 0.000000
    outer loop
      vertex 0.000000 101.600000 0.000000
      vertex 161.644610 101.600000 161.644610
      vertex 114.300000 101.600000 197.973407
    endloop
  endfacet
  facet normal -0.382683 0.000000 -0.923880
    outer loop
      vertex 114.300000 -101.600000 197.973407
      vertex 59.166034 -101.600000 220.810644
      vertex 59.166034 101.600000 220.810644
    endloop
  endfacet
  facet normal -0.382683 0.000000 -0.923880
    outer loop
      vertex 114.300000 -101.600000 197.973407
      vertex 59.166034 101.600000 220.810644
      vertex 114.300000 101.600000 197.973407
    endloop
  endfacet
  facet normal 0.000000 1.000000 0.000000
    outer loop
      vertex 0.000000 -101.600000 0.000000
      vertex 59.166034 -101.600000 220.810644
      vertex 114.300000 -101.600000 197.973407
    endloop
  endfacet
  facet normal 0.000000 -1.000000 0.000000
    outer loop
      vertex 0.000000 101.600000 0.000000
      vertex 114.300000 101.600000 197.973407
      vertex 59.166034 101.600000 220.810644
    endloop
  endfacet
  facet normal -0.130526 0.000000 -0.991445
    outer loop
      vertex 59.166034 -101.600000 220.810644
      vertex 0.000000 -101.600000 228.600000
      vertex 0.000000 101.600000 228.600000
    endloop
  endfacet
  facet normal -0.130526 0.000000 -0.991445
    outer loop
      vertex 59.166034 -101.600000 220.810644
      vertex 0.000000 101.600000 228.600000
      vertex 59.166034 101.600000 220.810644
    endloop
  endfacet
  facet normal 0.000000 1.000000 0.000000
    outer loop
      vertex 0.000000 -101.600000 0.000000
      vertex 0.000000 -101.600000 228.600000
      vertex 59.166034 -101.600000 220.810644
    endloop
  endfacet
  facet normal 0.000000 -1.000000 0.000000
    outer loop
      vertex 0.000000 101.600000 0.000000
      vertex 59.166034 101.600000 220.810644
      vertex 0.000000 101.600000 228.600000
    endloop
  endfacet
  facet normal 0.130526 0.000000 -0.991445
    outer loop
      vertex 0.000000 -101.600000 228.600000
      vertex -59.166034 -101.600000 220.810644
      vertex -59.166034 101.600000 220.810644
    endloop
  endfacet
  facet normal 0.130526 0.000000 -0.991445
    outer loop
      vertex 0.000000 -101.600000 228.600000
      vertex -59.166034 101.600000 220.810644
      vertex 0.000000 101.600000 228.600000
    endloop
  endfacet
  facet normal 0.000000 1.000000 -0.000000
    outer loop
      vertex 0.000000 -101.600000 0.000000
      vertex -59.166034 -101.600000 220.810644
      vertex 0.000000 -101.600000 228.600000
    endloop
  endfacet
  facet normal 0.000000 -1.000000 0.000000
    outer loop
      vertex 0.000000 101.600000 0.000000
      vertex 0.000000 101.600000 228.600000
      vertex -59.166034 101.600000 220.810644
    endloop
  endfacet
  facet normal 0.382683 0.000000 -0.923880
    outer loop
      vertex -59.166034 -101.600000 220.810644
      vertex -114.300000 -101.600000 197.973407
      vertex -114.300000 101.600000 197.973407
    endloop
  endfacet
  facet normal 0.382683 0.000000 -0.923880
    outer loop
      vertex -59.166034 -101.600000 220.810644
      vertex -114.300000 101.600000 197.973407
      vertex -59.166034 101.600000 220.810644
    endloop
  endfacet
  facet normal 0.000000 1.000000 0.000000
    outer loop
      vertex 0.000000 -101.600000 0.000000
      vertex -114.300000 -101.600000 197.973407
      vertex -59.166034 -101.600000 220.810644
    endloop
  endfacet
  facet normal 0.000000 -1.000000 0.000000
    outer loop
      vertex 0.000000 101.600000 0.000000
      vertex -59.166034 101.600000 220.810644
      vertex -114.300000 101.600000 197.973407
    endloop
  endfacet
  facet normal 0.608761 0.000000 -0.793353
    outer loop
      vertex -114.300000 -101.600000 197.973407
      vertex -161.644610 -101.600000 161.644610
      vertex -161.644610 101.600000 161.644610
    endloop
  endfacet
  facet normal 0.608761 0.000000 -0.793353
    outer loop
      vertex -114.300000 -101.600000 197.973407
      vertex -161.644610 101.600000 161.644610
      vertex -114.300000 101.600000 197.973407
    endloop
  endfacet
  facet normal 0.000000 1.000000 0.000000
    outer loop
      vertex 0.000000 -101.600000 0.000000
      vertex -161.644610 -101.600000 161.644610
      vertex -114.300000 -101.600000 197.973407
    endloop
  endfacet
  facet normal 0.000000 -1.000000 0.000000
    outer loop
      vertex 0.000000 101.600000 0.000000
      vertex -114.300000 101.600000 197.973407
      vertex -161.644610 101.600000 161.644610
    endloop
  endfacet
  facet normal 0.793353 0.000000 -0.608761
    outer loop
      vertex -161.644610 -101.600000 161.644610
      vertex -197.973407 -101.600000 114.300000
      vertex -197.973407 101.600000 114.300000
    endloop
  endfacet
  facet normal 0.793353 0.000000 -0.608761
    outer loop
      vertex -161.644610 -101.600000 161.644610
      vertex -197.973407 101.600000 114.300000
      vertex -161.644610 101.600000 161.644610
    endloop
  endfacet
  facet normal 0.000000 1.000000 0.000000
    outer loop
      vertex 0.000000 -101.600000 0.000000
      vertex -197.973407 -101.600000 114.300000
      vertex -161.644610 -101.600000 161.644610
    endloop
  endfacet
  facet normal 0.000000 -1.000000 0.000000
    outer loop
      vertex 0.000000 101.600000 0.000000
      vertex -161.644610 101.600000 161.644610
      vertex -197.973407 101.600000 114.300000
    endloop
  endfacet
  facet normal 0.923880 0.000000 -0.382683
    outer loop
      vertex -197.973407 -101.600000 114.300000
      vertex -220.810644 -101.600000 59.166034
      vertex -220.810644 101.600000 59.166034
    endloop
  endfacet
  facet normal 0.923880 0.000000 -0.382683
    outer loop
      vertex -197.973407 -101.600000 114.300000
      vertex -220.810644 101.600000 59.166034
      vertex -197.973407 101.600000 114.300000
    endloop
  endfacet
  facet normal 0.000000 1.000000 0.000000
    outer loop
      vertex 0.000000 -101.600000 0.000000
      vertex -220.810644 -101.600000 59.166034
      vertex -197.973407 -101.600000 114.300000
    endloop
  endfacet
  facet normal 0.000000 -1.000000 0.000000
    outer loop
      vertex 0.000000 101.600000 0.000000
      vertex -197.973407 101.600000 114.300000
      vertex -220.810644 101.600000 59.166034
    endloop
  endfacet
  facet normal 0.991445 0.000000 -0.130526
    outer loop
      vertex -220.810644 -101.600000 59.166034
      vertex -228.600000 -101.600000 0.000000
      vertex -228.600000 101.600000 0.000000
    endloop
  endfacet
  facet normal 0.991445 0.000000 -0.130526
    outer loop
      vertex -220.810644 -101.600000 59.166034
      vertex -228.600000 101.600000 0.000000
      vertex -220.810644 101.600000 59.166034
    endloop
  endfacet
  facet normal 0.000000 1.000000 0.000000
    outer loop
      vertex 0.000000 -101.600000 0.000000
      vertex -228.600000 -101.600000 0.000000
      vertex -220.810644 -101.600000 59.166034
    endloop
  endfacet
  facet normal 0.000000 -1.000000 0.000000
    outer loop
      vertex 0.000000 101.600000 0.000000
      vertex -220.810644 101.600000 59.166034
      vertex -228.600000 101.600000 0.000000
    endloop
  endfacet
  facet normal 0.991445 0.000000 0.130526
    outer loop
      vertex -228.600000 -101.600000 0.000000
      vertex -220.810644 -101.600000 -59.166034
      vertex -220.810644 101.600000 -59.166034
    endloop
  endfacet
  facet normal 0.991445 -0.000000 0.130526
    outer loop
      vertex -228.600000 -101.600000 0.000000
      vertex -220.810644 101.600000 -59.166034
      vertex -228.600000 101.600000 0.000000
    endloop
  endfacet
  facet normal 0.000000 1.000000 0.000000
    outer loop
      vertex 0.000000 -101.600000 0.000000
      vertex -220.810644 -101.600000 -59.166034
      vertex -228.600000 -101.600000 0.000000
    endloop
  endfacet
  facet normal -0.000000 -1.000000 0.000000
    outer loop
      vertex 0.000000 101.600000 0.000000
      vertex -228.600000 101.600000 0.000000
      vertex -220.810644 101.600000 -59.166034
    endloop
  endfacet
  facet normal 0.923880 0.000000 0.382683
    outer loop
      vertex -220.810644 -101.600000 -59.166034
      vertex -197.973407 -101.600000 -114.300000
      vertex -197.973407 101.600000 -114.300000
    endloop
  endfacet
  facet normal 0.923880 -0.000000 0.382683
    outer loop
      vertex -220.810644 -101.600000 -59.166034
      vertex -197.973407 101.600000 -114.300000
      vertex -220.810644 101.600000 -59.166034
    endloop
  endfacet
  facet normal 0.000000 1.000000 0.000000
    outer loop
      vertex 0.000000 -101.600000 0.000000
      vertex -197.973407 -101.600000 -114.300000
      vertex -220.810644 -101.600000 -59.166034
    endloop
  endfacet
  facet normal 0.000000 -1.000000 0.000000
    outer loop
      vertex 0.000000 101.600000 0.000000
      vertex -220.810644 101.600000 -59.166034
      vertex -197.973407 101.600000 -114.300000
    endloop
  endfacet
  facet normal 0.793353 0.000000 0.608761
    outer loop
      vertex -197.973407 -101.600000 -114.300000
      vertex -161.644610 -101.600000 -161.644610
      vertex -161.644610 101.600000 -161.644610
    endloop
  endfacet
  facet normal 0.793353 -0.000000 0.608761
    outer loop
      vertex -197.973407 -101.600000 -114.300000
      vertex -161.644610 101.600000 -161.644610
      vertex -197.973407 101.600000 -114.300000
    endloop
  endfacet
  facet normal 0.000000 1.000000 0.000000
    outer loop
      vertex 0.000000 -101.600000 0.000000
      vertex -161.644610 -101.600000 -161.644610
      vertex -197.973407 -101.600000 -114.300000
    endloop
  endfacet
  facet normal 0.000000 -1.000000 0.000000
    outer loop
      vertex 0.000000 101.600000 0.000000
      vertex -197.973407 101.600000 -114.300000
      vertex -161.644610 101.600000 -161.644610
    endloop
  endfacet
  facet normal 0.608761 0.000000 0.793353
    outer loop
      vertex -161.644610 -101.600000 -161.644610
      vertex -114.300000 -101.600000 -197.973407
      vertex -114.300000 101.600000 -197.973407
    endloop
  endfacet
  facet normal 0.608761 -0.000000 0.793353
    outer loop
      vertex -161.644610 -101.600000 -161.644610
      vertex -114.300000 101.600000 -197.973407
      vertex -161.644610 101.600000 -161.644610
    endloop
  endfacet
  facet normal 0.000000 1.000000 0.000000
    outer loop
      vertex 0.000000 -101.600000 0.000000
      vertex -114.300000 -101.600000 -197.973407
      vertex -161.644610 -101.600000 -161.644610
    endloop
  endfacet
  facet normal 0.000000 -1.000000 0.000000
    outer loop
      vertex 0.000000 101.600000 0.000000
      vertex -161.644610 101.600000 -161.644610
      vertex -114.300000 101.600000 -197.973407
    endloop
  endfacet
  facet normal 0.382683 0.000000 0.923880
    outer loop
      vertex -114.300000 -101.600000 -197.973407
      vertex -59.166034 -101.600000 -220.810644
      vertex -59.166034 101.600000 -220.810644
    endloop
  endfacet
  facet normal 0.382683 -0.000000 0.923880
    outer loop
      vertex -114.300000 -101.600000 -197.973407
      vertex -59.166034 101.600000 -220.810644
      vertex -114.300000 101.600000 -197.973407
    endloop
  endfacet
  facet normal 0.000000 1.000000 0.000000
    outer loop
      vertex 0.000000 -101.600000 0.000000
      vertex -59.166034 -101.600000 -220.810644
      vertex -114.300000 -101.600000 -197.973407
    endloop
  endfacet
  facet normal 0.000000 -1.000000 0.000000
    outer loop
      vertex 0.000000 101.600000 0.000000
      vertex -114.300000 101.600000 -197.973407
      vertex -59.166034 101.600000 -220.810644
    endloop
  endfacet
  facet normal 0.130526 0.000000 0.991445
    outer loop
      vertex -59.166034 -101.600000 -220.810644
      vertex -0.000000 -101.600000 -228.600000
      vertex -0.000000 101.600000 -228.600000
    endloop
  endfacet
  facet normal 0.130526 -0.000000 0.991445
    outer loop
      vertex -59.166034 -101.600000 -220.810644
      vertex -0.000000 101.600000 -228.600000
      vertex -59.166034 101.600000 -220.810644
    endloop
  endfacet
  facet normal 0.000000 1.000000 0.000000
    outer loop
      vertex 0.000000 -101.600000 0.000000
      vertex -0.000000 -101.600000 -228.600000
      vertex -59.166034 -101.600000 -220.810644
    endloop
  endfacet
  facet normal 0.000000 -1.000000 0.000000
    outer loop
      vertex 0.000000 101.600000 0.000000
      vertex -59.166034 101.600000 -220.810644
      vertex -0.000000 101.600000 -228.600000
    endloop
  endfacet
  facet normal -0.130526 0.000000 0.991445
    outer loop
      vertex -0.000000 -101.600000 -228.600000
      vertex 59.166034 -101.600000 -220.810644
      vertex 59.166034 101.600000 -220.810644
    endloop
  endfacet
  facet normal -0.130526 0.000000 0.991445
    outer loop
      vertex -0.000000 -101.600000 -228.600000
      vertex 59.166034 101.600000 -220.810644
      vertex -0.000000 101.600000 -228.600000
    endloop
  endfacet
  facet normal 0.000000 1.000000 0.000000
    outer loop
      vertex 0.000000 -101.600000 0.000000
      vertex 59.166034 -101.600000 -220.810644
      vertex -0.000000 -101.600000 -228.600000
    endloop
  endfacet
  facet normal 0.000000 -1.000000 -0.000000
    outer loop
      vertex 0.000000 101.600000 0.000000
      vertex -0.000000 101.600000 -228.600000
      vertex 59.166034 101.600000 -220.810644
    endloop
  endfacet
  facet normal -0.382683 0.000000 0.923880
    outer loop
      vertex 59.166034 -101.600000 -220.810644
      vertex 114.300000 -101.600000 -197.973407
      vertex 114.300000 101.600000 -197.973407
    endloop
  endfacet
  facet normal -0.382683 0.000000 0.923880
    outer loop
      vertex 59.166034 -101.600000 -220.810644
      vertex 114.300000 101.600000 -197.973407
      vertex 59.166034 101.600000 -220.810644
    endloop
  endfacet
  facet normal 0.000000 1.000000 0.000000
    outer loop
      vertex 0.000000 -101.600000 0.000000
      vertex 114.300000 -101.600000 -197.973407
      vertex 59.166034 -101.600000 -220.810644
    endloop
  endfacet
  facet normal 0.000000 -1.000000 0.000000
    outer loop
      vertex 0.000000 101.600000 0.000000
      vertex 59.166034 101.600000 -220.810644
      vertex 114.300000 101.600000 -197.973407
    endloop
  endfacet
  facet normal -0.608761 0.000000 0.793353
    outer loop
      vertex 114.300000 -101.600000 -197.973407
      vertex 161.644610 -101.600000 -161.644610
      vertex 161.644610 101.600000 -161.644610
    endloop
  endfacet
  facet normal -0.608761 0.000000 0.793353
    outer loop
      vertex 114.300000 -101.600000 -197.973407
      vertex 161.644610 101.600000 -161.644610
      vertex 114.300000 101.600000 -197.973407
    endloop
  endfacet
  facet normal 0.000000 1.000000 0.000000
    outer loop
      vertex 0.000000 -101.600000 0.000000
      vertex 161.644610 -101.600000 -161.644610
      vertex 114.300000 -101.600000 -197.973407
    endloop
  endfacet
  facet normal 0.000000 -1.000000 0.000000
    outer loop
      vertex 0.000000 101.600000 0.000000
      vertex 114.300000 101.600000 -197.973407
      vertex 161.644610 101.600000 -161.644610
    endloop
  endfacet
  facet normal -0.793353 0.000000 0.608761
    outer loop
      vertex 161.644610 -101.600000 -161.644610
      vertex 197.973407 -101.600000 -114.300000
      vertex 197.973407 101.600000 -114.300000
    endloop
  endfacet
  facet normal -0.793353 0.000000 0.608761
    outer loop
      vertex 161.644610 -101.600000 -161.644610
      vertex 197.973407 101.600000 -114.300000
      vertex 161.644610 101.600000 -161.644610
    endloop
  endfacet
  facet normal 0.000000 1.000000 0.000000
    outer loop
      vertex 0.000000 -101.600000 0.000000
      vertex 197.973407 -101.600000 -114.300000
      vertex 161.644610 -101.600000 -161.644610
    endloop
  endfacet
  facet normal 0.000000 -1.000000 0.000000
    outer loop
      vertex 0.000000 101.600000 0.000000
      vertex 161.644610 101.600000 -161.644610
      vertex 197.973407 101.600000 -114.300000
    endloop
  endfacet
  facet normal -0.923880 0.000000 0.382683
    outer loop
      vertex 197.973407 -101.600000 -114.300000
      vertex 220.810644 -101.600000 -59.166034
      vertex 220.810644 101.600000 -59.166034
    endloop
  endfacet
  facet normal -0.923880 0.000000 0.382683
    outer loop
      vertex 197.973407 -101.600000 -114.300000
      vertex 220.810644 101.600000 -59.166034
      vertex 197.973407 101.600000 -114.300000
    endloop
  endfacet
  facet normal 0.000000 1.000000 0.000000
    outer loop
      vertex 0.000000 -101.600000 0.000000
      vertex 220.810644 -101.600000 -59.166034
      vertex 197.973407 -101.600000 -114.300000
    endloop
  endfacet
  facet normal 0.000000 -1.000000 0.000000
    outer loop
      vertex 0.000000 101.600000 0.000000
      vertex 197.973407 101.600000 -114.300000
      vertex 220.810644 101.600000 -59.166034
    endloop
  endfacet
  facet normal -0.991445 0.000000 0.130526
    outer loop
      vertex 220.810644 -101.600000 -59.166034
      vertex 228.600000 -101.600000 0.000000
      vertex 228.600000 101.600000 0.000000
    endloop
  endfacet
  facet normal -0.991445 0.000000 0.130526
    outer loop
      vertex 220.810644 -101.600000 -59.166034
      vertex 228.600000 101.600000 0.000000
      vertex 220.810644 101.600000 -59.166034
    endloop
  endfacet
  facet normal -0.000000 1.000000 0.000000
    outer loop
      vertex 0.000000 -101.600000 0.000000
      vertex 228.600000 -101.600000 0.000000
      vertex 220.810644 -101.600000 -59.166034
    endloop
  endfacet
  facet normal 0.000000 -1.000000 0.000000
    outer loop
      vertex 0.000000 101.600000 0.000000
      vertex 220.810644 101.600000 -59.166034
      vertex 228.600000 101.600000 0.000000
    endloop
  endfacet
endsolid CERO_Wheel
