solid CERO_BatteryBox
  facet normal 0.000000 0.000000 -1.000000
    outer loop
      vertex -150.000000 -200.000000 -100.000000
      vertex 150.000000 200.000000 -100.000000
      vertex 150.000000 -200.000000 -100.000000
    endloop
  endfacet
  facet normal 0.000000 0.000000 -1.000000
    outer loop
      vertex -150.000000 -200.000000 -100.000000
      vertex -150.000000 200.000000 -100.000000
      vertex 150.000000 200.000000 -100.000000
    endloop
  endfacet
  facet normal 0.000000 0.000000 1.000000
    outer loop
      vertex -150.000000 -200.000000 100.000000
      vertex 150.000000 -200.000000 100.000000
      vertex 150.000000 200.000000 100.000000
    endloop
  endfacet
  facet normal 0.000000 0.000000 1.000000
    outer loop
      vertex -150.000000 -200.000000 100.000000
      vertex 150.000000 200.000000 100.000000
      vertex -150.000000 200.000000 100.000000
    endloop
  endfacet
  facet normal 0.000000 -1.000000 0.000000
    outer loop
      vertex -150.000000 -200.000000 -100.000000
      vertex 150.000000 -200.000000 -100.000000
      vertex 150.000000 -200.000000 100.000000
    endloop
  endfacet
  facet normal 0.000000 -1.000000 0.000000
    outer loop
      vertex -150.000000 -200.000000 -100.000000
      vertex 150.000000 -200.000000 100.000000
      vertex -150.000000 -200.000000 100.000000
    endloop
  endfacet
  facet normal 1.000000 0.000000 0.000000
    outer loop
      vertex 150.000000 -200.000000 -100.000000
      vertex 150.000000 200.000000 -100.000000
      vertex 150.000000 200.000000 100.000000
    endloop
  endfacet
  facet normal 1.000000 0.000000 0.000000
    outer loop
      vertex 150.000000 -200.000000 -100.000000
      vertex 150.000000 200.000000 100.000000
      vertex 150.000000 -200.000000 100.000000
    endloop
  endfacet
  facet normal 0.000000 1.000000 0.000000
    outer loop
      vertex 150.000000 200.000000 -100.000000
      vertex -150.000000 200.000000 -100.000000
      vertex -150.000000 200.000000 100.000000
    endloop
  endfacet
  facet normal 0.000000 1.000000 -0.000000
    outer loop
      vertex 150.000000 200.000000 -100.000000
      vertex -150.000000 200.000000 100.000000
      vertex 150.000000 200.000000 100.000000
    endloop
  endfacet
  facet normal -1.000000 0.000000 0.000000
    outer loop
      vertex -150.000000 200.000000 -100.000000
      vertex -150.000000 -200.000000 -100.000000
      vertex -150.000000 -200.000000 100.000000
    endloop
  endfacet
  facet normal -1.000000 0.000000 0.000000
    outer loop
      vertex -150.000000 200.000000 -100.000000
      vertex -150.000000 -200.000000 100.000000
      vertex -150.000000 200.000000 100.000000
    endloop
  endfacet
endsolid CERO_BatteryBox
